<?xml version="1.0" encoding="UTF-8"?>
<svg xmlns="http://www.w3.org/2000/svg" width="420" height="644" viewBox="0 0 420 644" role="img" aria-label="11 de BASTO">
  <defs>
    <linearGradient id="paper" x1="0" x2="0" y1="0" y2="1">
      <stop offset="0" stop-color="#fffdf7"/>
      <stop offset="0.58" stop-color="#f4efe2"/>
      <stop offset="1" stop-color="#e6ddc8"/>
    </linearGradient>
    <filter id="softShadow" x="-20%" y="-20%" width="140%" height="140%">
      <feDropShadow dx="0" dy="4" stdDeviation="3" flood-color="#20140b" flood-opacity="0.22"/>
    </filter>
  </defs>
  <rect x="1" y="1" width="418" height="642" rx="30" fill="url(#paper)" stroke="#1b1713" stroke-width="2"/>
  <rect x="28" y="28" width="364" height="588" fill="none" stroke="#1f1d19" stroke-width="2"/>
  <path d="M80 28h54M194 28h54M308 28h54M80 616h54M194 616h54M308 616h54" stroke="#1f1d19" stroke-width="3" stroke-linecap="square"/>
  <g transform="translate(50 70) rotate(0)">
    <text x="0" y="0" text-anchor="middle" font-family="Georgia, serif" font-size="48" fill="#111">11</text>
    <text x="0" y="28" text-anchor="middle" font-family="Arial, sans-serif" font-size="17" font-weight="900" fill="#4f8b34">B</text>
  </g>
  <g transform="translate(370 574) rotate(180)">
    <text x="0" y="0" text-anchor="middle" font-family="Georgia, serif" font-size="48" fill="#111">11</text>
    <text x="0" y="28" text-anchor="middle" font-family="Arial, sans-serif" font-size="17" font-weight="900" fill="#4f8b34">B</text>
  </g>
  <g filter="url(#softShadow)">
    <rect x="116" y="124" width="188" height="356" rx="24" fill="#f8f1df" stroke="#1d3917" stroke-width="4"/>
    <rect x="136" y="146" width="148" height="312" rx="16" fill="#ffffff" stroke="#4f8b34" stroke-width="3" opacity="0.84"/>
    <g transform="translate(210 255)">
      <g transform="scale(1.28)"><g transform="rotate(-24)"><rect x="-17" y="-76" width="34" height="152" rx="16" fill="#75a51f" stroke="#1d3917" stroke-width="6"/><path d="M-10-50L10 54" stroke="#ffe45a" stroke-width="8" stroke-linecap="round"/><path d="M-17-34H17M-17 8H17M-17 48H17" stroke="#17300d" stroke-width="4" stroke-linecap="round" opacity="0.55"/></g></g>
    </g>
    <path d="M149 358C166 326 254 326 271 358L286 431H134Z" fill="#4f8b34" stroke="#1d3917" stroke-width="6" stroke-linejoin="round"/>
    <path d="M165 385H255M171 414H249" stroke="#f7e5bd" stroke-width="5" stroke-linecap="round" opacity="0.66"/>
    <text x="210" y="433" text-anchor="middle" font-family="Georgia, serif" font-size="58" font-weight="800" fill="#fff1cd" stroke="#1d3917" stroke-width="2">11</text>
  </g>
  <text x="210" y="538" text-anchor="middle" font-family="Georgia, serif" font-size="31" font-weight="800" fill="#1d3917" letter-spacing="4">CABALLO</text>
  <text x="210" y="568" text-anchor="middle" font-family="Arial, sans-serif" font-size="13" font-weight="900" fill="#4f8b34" letter-spacing="5">BASTO</text>
</svg>
