<?xml version="1.0" encoding="UTF-8"?>
<svg xmlns="http://www.w3.org/2000/svg" width="420" height="620" viewBox="0 0 420 620" role="img" aria-label="2 de ORO">
  <defs>
    <filter id="paper" x="-10%" y="-10%" width="120%" height="120%">
      <feTurbulence type="fractalNoise" baseFrequency="0.018" numOctaves="2" seed="53" result="noise"/>
      <feColorMatrix in="noise" type="saturate" values="0"/>
      <feComponentTransfer>
        <feFuncA type="table" tableValues="0 0.045"/>
      </feComponentTransfer>
      <feBlend in="SourceGraphic" mode="multiply"/>
    </filter>
  </defs>
  <rect width="420" height="620" rx="28" fill="#f4e4bf"/>
  <rect x="14" y="14" width="392" height="592" rx="22" fill="#f7ebce" stroke="#6e4a2b" stroke-width="5" filter="url(#paper)"/>
  <rect x="31" y="31" width="358" height="558" rx="15" fill="none" stroke="#b77a13" stroke-width="3"/>
  <rect x="44" y="44" width="332" height="532" rx="10" fill="none" stroke="#9f7040" stroke-width="1.6" opacity="0.48"/>
  <g transform="translate(58 76) rotate(0)">
    <text x="0" y="0" text-anchor="middle" font-family="Georgia, serif" font-size="46" font-weight="800" fill="#5d3510">2</text>
    <text x="0" y="31" text-anchor="middle" font-family="Arial, sans-serif" font-size="18" font-weight="900" fill="#b77a13">O</text>
  </g>
  <g transform="translate(362 544) rotate(180)">
    <text x="0" y="0" text-anchor="middle" font-family="Georgia, serif" font-size="46" font-weight="800" fill="#5d3510">2</text>
    <text x="0" y="31" text-anchor="middle" font-family="Arial, sans-serif" font-size="18" font-weight="900" fill="#b77a13">O</text>
  </g>
  <text x="210" y="102" text-anchor="middle" font-family="Georgia, serif" font-size="22" font-weight="700" letter-spacing="4" fill="#5d3510">ORO</text>
  <g><g transform="translate(210 210) rotate(0) scale(1)"><circle cx="0" cy="0" r="46" fill="#d9a134" stroke="#5d3510" stroke-width="6"/>
  <circle cx="0" cy="0" r="27" fill="#f2cf68" stroke="#8e5b14" stroke-width="3"/>
  <path d="M-27 0H27M0-27V27" stroke="#8e5b14" stroke-width="5" stroke-linecap="round"/></g><g transform="translate(210 418) rotate(180) scale(1)"><circle cx="0" cy="0" r="46" fill="#d9a134" stroke="#5d3510" stroke-width="6"/>
  <circle cx="0" cy="0" r="27" fill="#f2cf68" stroke="#8e5b14" stroke-width="3"/>
  <path d="M-27 0H27M0-27V27" stroke="#8e5b14" stroke-width="5" stroke-linecap="round"/></g></g>
  
  <text x="210" y="574" text-anchor="middle" font-family="Arial, sans-serif" font-size="13" font-weight="700" letter-spacing="3" fill="#7c5838">TRUCOLOCO BARAJA ESPAÑOLA</text>
</svg>