<?xml version="1.0" encoding="UTF-8"?>
<svg xmlns="http://www.w3.org/2000/svg" width="420" height="620" viewBox="0 0 420 620" role="img" aria-label="6 de ESPADAS">
  <defs>
    <radialGradient id="paper" cx="50%" cy="42%" r="75%">
      <stop offset="0%" stop-color="#f9efd3"/>
      <stop offset="78%" stop-color="#f2e3bd"/>
      <stop offset="100%" stop-color="#e4d0a4"/>
    </radialGradient>
  </defs>
  <rect width="420" height="620" rx="28" fill="#efdcb2"/>
  <rect x="10" y="10" width="400" height="600" rx="24" fill="url(#paper)" stroke="#6e4a2b" stroke-width="5"/>
  <rect x="24" y="24" width="372" height="572" rx="16" fill="none" stroke="#3d6478" stroke-width="2.4" opacity="0.55"/>
  <path d="M60,31 H360 M60,589 H360" stroke="#3d6478" stroke-width="7" stroke-linecap="round"/><rect x="151.0" y="25" width="18" height="12" fill="#f9efd3"/><path d="M160.0,24 L160.0,38" stroke="#243d4a" stroke-width="2.4"/><rect x="151.0" y="583" width="18" height="12" fill="#f9efd3"/><path d="M160.0,582 L160.0,596" stroke="#243d4a" stroke-width="2.4"/><rect x="251.0" y="25" width="18" height="12" fill="#f9efd3"/><path d="M260.0,24 L260.0,38" stroke="#243d4a" stroke-width="2.4"/><rect x="251.0" y="583" width="18" height="12" fill="#f9efd3"/><path d="M260.0,582 L260.0,596" stroke="#243d4a" stroke-width="2.4"/>
  
  <g transform="translate(62 88) rotate(0)">
    <text x="0" y="0" text-anchor="middle" font-family="Georgia, 'Times New Roman', serif" font-size="52" font-weight="700" fill="#241409">6</text>
    <g transform="translate(0 26) rotate(0) scale(0.2)">
  <path d="M0,-74 C11,-56 14,-24 11,20 L-11,20 C-14,-24 -11,-56 0,-74 Z" fill="#b9cdd6" stroke="#241409" stroke-width="6" stroke-linejoin="round"/>
  <path d="M0,-60 L0,14" stroke="#faf4e2" stroke-width="4" stroke-linecap="round" opacity="0.85"/>
  <path d="M-34,24 Q0,34 34,24 L34,36 Q0,46 -34,36 Z" fill="#c9971d" stroke="#241409" stroke-width="5" stroke-linejoin="round"/>
  <rect x="-8" y="38" width="16" height="30" rx="5" fill="#3d6478" stroke="#241409" stroke-width="5"/>
  <path d="M-8,46 H8 M-8,54 H8" stroke="#243d4a" stroke-width="3"/>
  <circle cx="0" cy="76" r="11" fill="#c9971d" stroke="#241409" stroke-width="5"/>
</g>
  </g>
  
  <g transform="translate(358 532) rotate(180)">
    <text x="0" y="0" text-anchor="middle" font-family="Georgia, 'Times New Roman', serif" font-size="52" font-weight="700" fill="#241409">6</text>
    <g transform="translate(0 26) rotate(0) scale(0.2)">
  <path d="M0,-74 C11,-56 14,-24 11,20 L-11,20 C-14,-24 -11,-56 0,-74 Z" fill="#b9cdd6" stroke="#241409" stroke-width="6" stroke-linejoin="round"/>
  <path d="M0,-60 L0,14" stroke="#faf4e2" stroke-width="4" stroke-linecap="round" opacity="0.85"/>
  <path d="M-34,24 Q0,34 34,24 L34,36 Q0,46 -34,36 Z" fill="#c9971d" stroke="#241409" stroke-width="5" stroke-linejoin="round"/>
  <rect x="-8" y="38" width="16" height="30" rx="5" fill="#3d6478" stroke="#241409" stroke-width="5"/>
  <path d="M-8,46 H8 M-8,54 H8" stroke="#243d4a" stroke-width="3"/>
  <circle cx="0" cy="76" r="11" fill="#c9971d" stroke="#241409" stroke-width="5"/>
</g>
  </g>
  <text x="210" y="576" text-anchor="middle" font-family="Georgia, 'Times New Roman', serif" font-size="19" font-weight="700" letter-spacing="5" fill="#243d4a" opacity="0.85">ESPADAS</text>
  <g transform="translate(138 180) rotate(0) scale(0.85)">
  <path d="M0,-74 C11,-56 14,-24 11,20 L-11,20 C-14,-24 -11,-56 0,-74 Z" fill="#b9cdd6" stroke="#241409" stroke-width="6" stroke-linejoin="round"/>
  <path d="M0,-60 L0,14" stroke="#faf4e2" stroke-width="4" stroke-linecap="round" opacity="0.85"/>
  <path d="M-34,24 Q0,34 34,24 L34,36 Q0,46 -34,36 Z" fill="#c9971d" stroke="#241409" stroke-width="5" stroke-linejoin="round"/>
  <rect x="-8" y="38" width="16" height="30" rx="5" fill="#3d6478" stroke="#241409" stroke-width="5"/>
  <path d="M-8,46 H8 M-8,54 H8" stroke="#243d4a" stroke-width="3"/>
  <circle cx="0" cy="76" r="11" fill="#c9971d" stroke="#241409" stroke-width="5"/>
</g><g transform="translate(282 180) rotate(0) scale(0.85)">
  <path d="M0,-74 C11,-56 14,-24 11,20 L-11,20 C-14,-24 -11,-56 0,-74 Z" fill="#b9cdd6" stroke="#241409" stroke-width="6" stroke-linejoin="round"/>
  <path d="M0,-60 L0,14" stroke="#faf4e2" stroke-width="4" stroke-linecap="round" opacity="0.85"/>
  <path d="M-34,24 Q0,34 34,24 L34,36 Q0,46 -34,36 Z" fill="#c9971d" stroke="#241409" stroke-width="5" stroke-linejoin="round"/>
  <rect x="-8" y="38" width="16" height="30" rx="5" fill="#3d6478" stroke="#241409" stroke-width="5"/>
  <path d="M-8,46 H8 M-8,54 H8" stroke="#243d4a" stroke-width="3"/>
  <circle cx="0" cy="76" r="11" fill="#c9971d" stroke="#241409" stroke-width="5"/>
</g><g transform="translate(138 325) rotate(0) scale(0.85)">
  <path d="M0,-74 C11,-56 14,-24 11,20 L-11,20 C-14,-24 -11,-56 0,-74 Z" fill="#b9cdd6" stroke="#241409" stroke-width="6" stroke-linejoin="round"/>
  <path d="M0,-60 L0,14" stroke="#faf4e2" stroke-width="4" stroke-linecap="round" opacity="0.85"/>
  <path d="M-34,24 Q0,34 34,24 L34,36 Q0,46 -34,36 Z" fill="#c9971d" stroke="#241409" stroke-width="5" stroke-linejoin="round"/>
  <rect x="-8" y="38" width="16" height="30" rx="5" fill="#3d6478" stroke="#241409" stroke-width="5"/>
  <path d="M-8,46 H8 M-8,54 H8" stroke="#243d4a" stroke-width="3"/>
  <circle cx="0" cy="76" r="11" fill="#c9971d" stroke="#241409" stroke-width="5"/>
</g><g transform="translate(282 325) rotate(0) scale(0.85)">
  <path d="M0,-74 C11,-56 14,-24 11,20 L-11,20 C-14,-24 -11,-56 0,-74 Z" fill="#b9cdd6" stroke="#241409" stroke-width="6" stroke-linejoin="round"/>
  <path d="M0,-60 L0,14" stroke="#faf4e2" stroke-width="4" stroke-linecap="round" opacity="0.85"/>
  <path d="M-34,24 Q0,34 34,24 L34,36 Q0,46 -34,36 Z" fill="#c9971d" stroke="#241409" stroke-width="5" stroke-linejoin="round"/>
  <rect x="-8" y="38" width="16" height="30" rx="5" fill="#3d6478" stroke="#241409" stroke-width="5"/>
  <path d="M-8,46 H8 M-8,54 H8" stroke="#243d4a" stroke-width="3"/>
  <circle cx="0" cy="76" r="11" fill="#c9971d" stroke="#241409" stroke-width="5"/>
</g><g transform="translate(138 470) rotate(180) scale(0.85)">
  <path d="M0,-74 C11,-56 14,-24 11,20 L-11,20 C-14,-24 -11,-56 0,-74 Z" fill="#b9cdd6" stroke="#241409" stroke-width="6" stroke-linejoin="round"/>
  <path d="M0,-60 L0,14" stroke="#faf4e2" stroke-width="4" stroke-linecap="round" opacity="0.85"/>
  <path d="M-34,24 Q0,34 34,24 L34,36 Q0,46 -34,36 Z" fill="#c9971d" stroke="#241409" stroke-width="5" stroke-linejoin="round"/>
  <rect x="-8" y="38" width="16" height="30" rx="5" fill="#3d6478" stroke="#241409" stroke-width="5"/>
  <path d="M-8,46 H8 M-8,54 H8" stroke="#243d4a" stroke-width="3"/>
  <circle cx="0" cy="76" r="11" fill="#c9971d" stroke="#241409" stroke-width="5"/>
</g><g transform="translate(282 470) rotate(180) scale(0.85)">
  <path d="M0,-74 C11,-56 14,-24 11,20 L-11,20 C-14,-24 -11,-56 0,-74 Z" fill="#b9cdd6" stroke="#241409" stroke-width="6" stroke-linejoin="round"/>
  <path d="M0,-60 L0,14" stroke="#faf4e2" stroke-width="4" stroke-linecap="round" opacity="0.85"/>
  <path d="M-34,24 Q0,34 34,24 L34,36 Q0,46 -34,36 Z" fill="#c9971d" stroke="#241409" stroke-width="5" stroke-linejoin="round"/>
  <rect x="-8" y="38" width="16" height="30" rx="5" fill="#3d6478" stroke="#241409" stroke-width="5"/>
  <path d="M-8,46 H8 M-8,54 H8" stroke="#243d4a" stroke-width="3"/>
  <circle cx="0" cy="76" r="11" fill="#c9971d" stroke="#241409" stroke-width="5"/>
</g>
</svg>