<?xml version="1.0" encoding="UTF-8"?>
<svg xmlns="http://www.w3.org/2000/svg" width="420" height="620" viewBox="0 0 420 620" role="img" aria-label="10 de ORO">
  <rect width="420" height="620" rx="28" fill="#f4e4bf"/>
  <rect x="14" y="14" width="392" height="592" rx="22" fill="#f7ebce" stroke="#6e4a2b" stroke-width="5"/>
  <rect x="31" y="31" width="358" height="558" rx="15" fill="none" stroke="#b77a13" stroke-width="3"/>
  <rect x="44" y="44" width="332" height="532" rx="10" fill="none" stroke="#9f7040" stroke-width="1.6" opacity="0.48"/>
  <g transform="translate(58 76) rotate(0)">
    <text x="0" y="0" text-anchor="middle" font-family="Georgia, serif" font-size="46" font-weight="800" fill="#5d3510">10</text>
    <text x="0" y="31" text-anchor="middle" font-family="Arial, sans-serif" font-size="18" font-weight="900" fill="#b77a13">O</text>
  </g>
  <g transform="translate(362 544) rotate(180)">
    <text x="0" y="0" text-anchor="middle" font-family="Georgia, serif" font-size="46" font-weight="800" fill="#5d3510">10</text>
    <text x="0" y="31" text-anchor="middle" font-family="Arial, sans-serif" font-size="18" font-weight="900" fill="#b77a13">O</text>
  </g>
  <text x="210" y="102" text-anchor="middle" font-family="Georgia, serif" font-size="22" font-weight="700" letter-spacing="4" fill="#5d3510">ORO</text>
  <g><g transform="translate(210 304)">
    <rect x="-100" y="-136" width="200" height="272" rx="18" fill="#ead4ac" stroke="#5d3510" stroke-width="6"/>
    <rect x="-78" y="-113" width="156" height="226" rx="10" fill="#f5e7c8" stroke="#b77a13" stroke-width="4"/>

    <circle cx="0" cy="-48" r="36" fill="#c58b62" stroke="#5d3510" stroke-width="6"/>
    <path d="M-18-54C-8-68 14-67 24-52" fill="none" stroke="#3b2118" stroke-width="6" stroke-linecap="round"/>
    <circle cx="-12" cy="-47" r="4" fill="#1d110c"/>
    <circle cx="12" cy="-47" r="4" fill="#1d110c"/>
    <path d="M-52 4C-42-30 42-30 52 4L68 88H-68Z" fill="#b77a13" stroke="#5d3510" stroke-width="7" stroke-linejoin="round"/>
    <path d="M-40 14H40M-50 45H50" stroke="#f5e7c8" stroke-width="5" stroke-linecap="round" opacity="0.46"/>

    <text x="0" y="85" text-anchor="middle" font-family="Georgia, serif" font-size="78" font-weight="800" fill="#f7e8c7" stroke="#5d3510" stroke-width="3">S</text>
    <g transform="translate(0 157) rotate(0) scale(0.5)"><circle cx="0" cy="0" r="46" fill="#d9a134" stroke="#5d3510" stroke-width="6"/>
  <circle cx="0" cy="0" r="27" fill="#f2cf68" stroke="#8e5b14" stroke-width="3"/>
  <path d="M-27 0H27M0-27V27" stroke="#8e5b14" stroke-width="5" stroke-linecap="round"/></g>
  </g></g>
  <text x="210" y="519" text-anchor="middle" font-family="Georgia, serif" font-size="28" font-weight="700" letter-spacing="5" fill="#5d3510">SOTA</text>
</svg>