<?xml version="1.0" encoding="UTF-8"?>
<svg xmlns="http://www.w3.org/2000/svg" width="420" height="620" viewBox="0 0 420 620" role="img" aria-label="10 de BASTOS">
  <defs>
    <radialGradient id="paper" cx="50%" cy="42%" r="75%">
      <stop offset="0%" stop-color="#f9efd3"/>
      <stop offset="78%" stop-color="#f2e3bd"/>
      <stop offset="100%" stop-color="#e4d0a4"/>
    </radialGradient>
  </defs>
  <rect width="420" height="620" rx="28" fill="#efdcb2"/>
  <rect x="10" y="10" width="400" height="600" rx="24" fill="url(#paper)" stroke="#6e4a2b" stroke-width="5"/>
  <rect x="24" y="24" width="372" height="572" rx="16" fill="none" stroke="#527a35" stroke-width="2.4" opacity="0.55"/>
  <path d="M60,31 H360 M60,589 H360" stroke="#527a35" stroke-width="7" stroke-linecap="round"/><rect x="126.0" y="25" width="18" height="12" fill="#f9efd3"/><path d="M135.0,24 L135.0,38" stroke="#33511f" stroke-width="2.4"/><rect x="126.0" y="583" width="18" height="12" fill="#f9efd3"/><path d="M135.0,582 L135.0,596" stroke="#33511f" stroke-width="2.4"/><rect x="201.0" y="25" width="18" height="12" fill="#f9efd3"/><path d="M210.0,24 L210.0,38" stroke="#33511f" stroke-width="2.4"/><rect x="201.0" y="583" width="18" height="12" fill="#f9efd3"/><path d="M210.0,582 L210.0,596" stroke="#33511f" stroke-width="2.4"/><rect x="276.0" y="25" width="18" height="12" fill="#f9efd3"/><path d="M285.0,24 L285.0,38" stroke="#33511f" stroke-width="2.4"/><rect x="276.0" y="583" width="18" height="12" fill="#f9efd3"/><path d="M285.0,582 L285.0,596" stroke="#33511f" stroke-width="2.4"/>
  
  <g transform="translate(62 88) rotate(0)">
    <text x="0" y="0" text-anchor="middle" font-family="Georgia, 'Times New Roman', serif" font-size="52" font-weight="700" fill="#241409">10</text>
    <g transform="translate(0 26) rotate(0) scale(0.2)">
  <path d="M-14,-70 C-30,-58 -28,-26 -19,2 C-13,24 -10,44 -8,66 L8,66 C11,44 14,22 19,0 C27,-28 28,-58 13,-70 C5,-77 -6,-77 -14,-70 Z"
        fill="#527a35" stroke="#241409" stroke-width="6" stroke-linejoin="round"/>
  <path d="M-9,-58 C-16,-42 -14,-16 -8,8" fill="none" stroke="#c3d2ae" stroke-width="4" stroke-linecap="round" opacity="0.8"/>
  <ellipse cx="8" cy="-34" rx="6" ry="8" fill="#33511f" stroke="#241409" stroke-width="3"/>
  <ellipse cx="-6" cy="24" rx="5" ry="6" fill="#33511f" stroke="#241409" stroke-width="3"/>
  <path d="M-10,52 H10" stroke="#33511f" stroke-width="3" stroke-linecap="round"/>
</g>
  </g>
  
  <g transform="translate(358 532) rotate(180)">
    <text x="0" y="0" text-anchor="middle" font-family="Georgia, 'Times New Roman', serif" font-size="52" font-weight="700" fill="#241409">10</text>
    <g transform="translate(0 26) rotate(0) scale(0.2)">
  <path d="M-14,-70 C-30,-58 -28,-26 -19,2 C-13,24 -10,44 -8,66 L8,66 C11,44 14,22 19,0 C27,-28 28,-58 13,-70 C5,-77 -6,-77 -14,-70 Z"
        fill="#527a35" stroke="#241409" stroke-width="6" stroke-linejoin="round"/>
  <path d="M-9,-58 C-16,-42 -14,-16 -8,8" fill="none" stroke="#c3d2ae" stroke-width="4" stroke-linecap="round" opacity="0.8"/>
  <ellipse cx="8" cy="-34" rx="6" ry="8" fill="#33511f" stroke="#241409" stroke-width="3"/>
  <ellipse cx="-6" cy="24" rx="5" ry="6" fill="#33511f" stroke="#241409" stroke-width="3"/>
  <path d="M-10,52 H10" stroke="#33511f" stroke-width="3" stroke-linecap="round"/>
</g>
  </g>
  <text x="210" y="576" text-anchor="middle" font-family="Georgia, 'Times New Roman', serif" font-size="19" font-weight="700" letter-spacing="5" fill="#33511f" opacity="0.85">SOTA · BASTOS</text>
  
  <g transform="translate(210 330)">
    <ellipse cx="0" cy="180" rx="104" ry="13" fill="#33511f" opacity="0.25"/>
    <path d="M-30,64 L-42,158 L-16,158 L-8,72 Z" fill="#33511f" stroke="#241409" stroke-width="6" stroke-linejoin="round"/>
    <path d="M30,64 L42,158 L16,158 L8,72 Z" fill="#527a35" stroke="#241409" stroke-width="6" stroke-linejoin="round"/>
    <path d="M-48,158 L-42,172 L-8,172 L-14,156 Z" fill="#241409"/>
    <path d="M48,158 L42,172 L8,172 L14,156 Z" fill="#241409"/>
    <path d="M-46,-28 Q-52,30 -34,72 Q0,86 34,72 Q52,30 46,-28 Q0,-44 -46,-28 Z" fill="#527a35" stroke="#241409" stroke-width="7" stroke-linejoin="round"/>
    <path d="M-46,-28 Q-52,30 -34,72 Q-20,76 -6,77 L-4,-36 Q-26,-36 -46,-28 Z" fill="#33511f" opacity="0.45"/>
    <path d="M-44,20 H44" stroke="#c9971d" stroke-width="7"/>
    <circle cx="0" cy="20" r="7" fill="#c9971d" stroke="#241409" stroke-width="3.4"/>
    <path d="M-46,-24 Q-72,-6 -80,26 L-62,36 Q-54,10 -40,-4 Z" fill="#527a35" stroke="#241409" stroke-width="5.5" stroke-linejoin="round"/>
    <path d="M46,-24 Q72,-6 80,26 L62,36 Q54,10 40,-4 Z" fill="#527a35" stroke="#241409" stroke-width="5.5" stroke-linejoin="round"/>
    <circle cx="-71" cy="34" r="12" fill="#e9c69c" stroke="#241409" stroke-width="5"/>
    <circle cx="71" cy="34" r="12" fill="#e9c69c" stroke="#241409" stroke-width="5"/>
    <circle cx="0" cy="-66" r="40" fill="#e9c69c" stroke="#241409" stroke-width="6"/>
    <circle cx="-14" cy="-70" r="4.2" fill="#241409"/><circle cx="14" cy="-70" r="4.2" fill="#241409"/>
    <path d="M-12,-52 Q0,-44 12,-52" fill="none" stroke="#241409" stroke-width="3.6" stroke-linecap="round"/>
    <path d="M-42,-84 Q0,-118 44,-86 Q46,-70 38,-62 Q30,-92 -30,-94 Q-40,-90 -42,-84 Z" fill="#33511f" stroke="#241409" stroke-width="5.5" stroke-linejoin="round"/>
    <path d="M36,-96 Q58,-124 84,-118 Q72,-108 70,-92 Q56,-100 40,-88 Z" fill="#c3d2ae" stroke="#241409" stroke-width="4.6" stroke-linejoin="round"/>
    <g transform="translate(84 -14) rotate(0) scale(0.56)">
  <path d="M-14,-70 C-30,-58 -28,-26 -19,2 C-13,24 -10,44 -8,66 L8,66 C11,44 14,22 19,0 C27,-28 28,-58 13,-70 C5,-77 -6,-77 -14,-70 Z"
        fill="#527a35" stroke="#241409" stroke-width="6" stroke-linejoin="round"/>
  <path d="M-9,-58 C-16,-42 -14,-16 -8,8" fill="none" stroke="#c3d2ae" stroke-width="4" stroke-linecap="round" opacity="0.8"/>
  <ellipse cx="8" cy="-34" rx="6" ry="8" fill="#33511f" stroke="#241409" stroke-width="3"/>
  <ellipse cx="-6" cy="24" rx="5" ry="6" fill="#33511f" stroke="#241409" stroke-width="3"/>
  <path d="M-10,52 H10" stroke="#33511f" stroke-width="3" stroke-linecap="round"/>
</g>
  </g>
</svg>